<mxfile host="app.diagrams.net" modified="2023-05-03T18:33:47.160Z" agent="Mozilla/5.0 (X11; Linux x86_64) AppleWebKit/537.36 (KHTML, like Gecko) Chrome/112.0.0.0 Safari/537.36" etag="9jYIr7Nlom4ObRw4LnMu" version="21.1.1" type="device">
  <diagram id="C5RBs43oDa-KdzZeNtuy" name="Page-1">
    <mxGraphModel dx="1687" dy="954" grid="1" gridSize="10" guides="1" tooltips="1" connect="1" arrows="1" fold="1" page="1" pageScale="1" pageWidth="827" pageHeight="1169" math="0" shadow="0">
      <root>
        <mxCell id="WIyWlLk6GJQsqaUBKTNV-0" />
        <mxCell id="WIyWlLk6GJQsqaUBKTNV-1" parent="WIyWlLk6GJQsqaUBKTNV-0" />
        <mxCell id="U6kq9vKwo7JHEXa5F4a4-0" value="" style="rounded=1;whiteSpace=wrap;html=1;" vertex="1" parent="WIyWlLk6GJQsqaUBKTNV-1">
          <mxGeometry x="140" y="40" width="530" height="320" as="geometry" />
        </mxCell>
        <mxCell id="U6kq9vKwo7JHEXa5F4a4-3" value="" style="rounded=1;whiteSpace=wrap;html=1;" vertex="1" parent="WIyWlLk6GJQsqaUBKTNV-1">
          <mxGeometry x="304" y="50.88" width="175" height="299.12" as="geometry" />
        </mxCell>
        <mxCell id="U6kq9vKwo7JHEXa5F4a4-105" style="edgeStyle=orthogonalEdgeStyle;rounded=0;orthogonalLoop=1;jettySize=auto;html=1;entryX=0.975;entryY=0.047;entryDx=0;entryDy=0;entryPerimeter=0;" edge="1" parent="WIyWlLk6GJQsqaUBKTNV-1" source="U6kq9vKwo7JHEXa5F4a4-1" target="U6kq9vKwo7JHEXa5F4a4-15">
          <mxGeometry relative="1" as="geometry" />
        </mxCell>
        <mxCell id="U6kq9vKwo7JHEXa5F4a4-1" value="&lt;b&gt;MQTT Topic&lt;/b&gt;&lt;br&gt;vanetza/out/cpm" style="rounded=1;whiteSpace=wrap;html=1;arcSize=20;" vertex="1" parent="WIyWlLk6GJQsqaUBKTNV-1">
          <mxGeometry x="326.5" y="90" width="130" height="36.5" as="geometry" />
        </mxCell>
        <mxCell id="U6kq9vKwo7JHEXa5F4a4-4" value="&lt;b style=&quot;border-color: var(--border-color);&quot;&gt;Local MQTT Broker&lt;/b&gt;" style="text;html=1;strokeColor=none;fillColor=none;align=center;verticalAlign=middle;whiteSpace=wrap;rounded=0;" vertex="1" parent="WIyWlLk6GJQsqaUBKTNV-1">
          <mxGeometry x="304" y="51" width="140" height="30" as="geometry" />
        </mxCell>
        <mxCell id="U6kq9vKwo7JHEXa5F4a4-8" value="" style="group" vertex="1" connectable="0" parent="WIyWlLk6GJQsqaUBKTNV-1">
          <mxGeometry x="510" y="60" width="120" height="230" as="geometry" />
        </mxCell>
        <mxCell id="U6kq9vKwo7JHEXa5F4a4-5" value="" style="rounded=1;whiteSpace=wrap;html=1;" vertex="1" parent="U6kq9vKwo7JHEXa5F4a4-8">
          <mxGeometry width="120" height="230.00000000000003" as="geometry" />
        </mxCell>
        <mxCell id="U6kq9vKwo7JHEXa5F4a4-6" value="NAP-Vanetza" style="rounded=1;whiteSpace=wrap;html=1;" vertex="1" parent="U6kq9vKwo7JHEXa5F4a4-8">
          <mxGeometry x="12.5" y="40" width="95" height="47.82" as="geometry" />
        </mxCell>
        <mxCell id="U6kq9vKwo7JHEXa5F4a4-7" value="Vanetza" style="rounded=1;whiteSpace=wrap;html=1;" vertex="1" parent="U6kq9vKwo7JHEXa5F4a4-8">
          <mxGeometry x="12.5" y="150" width="95" height="43.56" as="geometry" />
        </mxCell>
        <mxCell id="U6kq9vKwo7JHEXa5F4a4-12" value="" style="shape=mxgraph.signs.sports.sail_boat;html=1;pointerEvents=1;fillColor=#000000;strokeColor=none;verticalLabelPosition=bottom;verticalAlign=top;align=center;" vertex="1" parent="WIyWlLk6GJQsqaUBKTNV-1">
          <mxGeometry x="160" y="51" width="40" height="39" as="geometry" />
        </mxCell>
        <mxCell id="U6kq9vKwo7JHEXa5F4a4-13" value="&lt;b style=&quot;font-size: 23px;&quot;&gt;&lt;font style=&quot;font-size: 23px;&quot;&gt;OBU1&lt;/font&gt;&lt;/b&gt;" style="text;html=1;strokeColor=none;fillColor=none;align=center;verticalAlign=middle;whiteSpace=wrap;rounded=0;fontSize=23;" vertex="1" parent="WIyWlLk6GJQsqaUBKTNV-1">
          <mxGeometry x="200" y="55.5" width="90" height="30" as="geometry" />
        </mxCell>
        <mxCell id="U6kq9vKwo7JHEXa5F4a4-110" style="edgeStyle=orthogonalEdgeStyle;rounded=0;orthogonalLoop=1;jettySize=auto;html=1;entryX=0;entryY=0.5;entryDx=0;entryDy=0;exitX=1.004;exitY=0.676;exitDx=0;exitDy=0;exitPerimeter=0;" edge="1" parent="WIyWlLk6GJQsqaUBKTNV-1" source="U6kq9vKwo7JHEXa5F4a4-15" target="U6kq9vKwo7JHEXa5F4a4-94">
          <mxGeometry relative="1" as="geometry">
            <Array as="points" />
          </mxGeometry>
        </mxCell>
        <mxCell id="U6kq9vKwo7JHEXa5F4a4-111" style="edgeStyle=orthogonalEdgeStyle;rounded=0;orthogonalLoop=1;jettySize=auto;html=1;entryX=0;entryY=0.5;entryDx=0;entryDy=0;" edge="1" parent="WIyWlLk6GJQsqaUBKTNV-1" target="U6kq9vKwo7JHEXa5F4a4-95">
          <mxGeometry relative="1" as="geometry">
            <mxPoint x="280" y="272" as="sourcePoint" />
          </mxGeometry>
        </mxCell>
        <mxCell id="U6kq9vKwo7JHEXa5F4a4-115" style="edgeStyle=orthogonalEdgeStyle;rounded=0;orthogonalLoop=1;jettySize=auto;html=1;entryX=0;entryY=0.5;entryDx=0;entryDy=0;" edge="1" parent="WIyWlLk6GJQsqaUBKTNV-1" source="U6kq9vKwo7JHEXa5F4a4-15" target="U6kq9vKwo7JHEXa5F4a4-114">
          <mxGeometry relative="1" as="geometry">
            <Array as="points">
              <mxPoint x="220" y="318" />
            </Array>
          </mxGeometry>
        </mxCell>
        <mxCell id="U6kq9vKwo7JHEXa5F4a4-15" value="&lt;b&gt;script_boat.py&lt;br&gt;&lt;/b&gt;&lt;br&gt;Subscrive denm&lt;br&gt;Subscrive cpm&lt;br&gt;Subscrive cam&lt;br&gt;&lt;br&gt;Publish denm&lt;br&gt;Publish cpm&lt;br&gt;Pubish cam" style="rounded=1;whiteSpace=wrap;html=1;" vertex="1" parent="WIyWlLk6GJQsqaUBKTNV-1">
          <mxGeometry x="160" y="100" width="120" height="190" as="geometry" />
        </mxCell>
        <mxCell id="U6kq9vKwo7JHEXa5F4a4-106" style="edgeStyle=orthogonalEdgeStyle;rounded=0;orthogonalLoop=1;jettySize=auto;html=1;entryX=1;entryY=0.25;entryDx=0;entryDy=0;" edge="1" parent="WIyWlLk6GJQsqaUBKTNV-1" source="U6kq9vKwo7JHEXa5F4a4-16" target="U6kq9vKwo7JHEXa5F4a4-15">
          <mxGeometry relative="1" as="geometry" />
        </mxCell>
        <mxCell id="U6kq9vKwo7JHEXa5F4a4-16" value="&lt;b&gt;MQTT Topic&lt;/b&gt;&lt;br&gt;vanetza/out/denm" style="rounded=1;whiteSpace=wrap;html=1;arcSize=20;" vertex="1" parent="WIyWlLk6GJQsqaUBKTNV-1">
          <mxGeometry x="326.5" y="130" width="130" height="36.5" as="geometry" />
        </mxCell>
        <mxCell id="U6kq9vKwo7JHEXa5F4a4-107" style="edgeStyle=orthogonalEdgeStyle;rounded=0;orthogonalLoop=1;jettySize=auto;html=1;entryX=1.004;entryY=0.465;entryDx=0;entryDy=0;entryPerimeter=0;" edge="1" parent="WIyWlLk6GJQsqaUBKTNV-1" source="U6kq9vKwo7JHEXa5F4a4-18" target="U6kq9vKwo7JHEXa5F4a4-15">
          <mxGeometry relative="1" as="geometry" />
        </mxCell>
        <mxCell id="U6kq9vKwo7JHEXa5F4a4-18" value="&lt;b&gt;MQTT Topic&lt;/b&gt;&lt;br&gt;vanetza/out/cam" style="rounded=1;whiteSpace=wrap;html=1;arcSize=20;" vertex="1" parent="WIyWlLk6GJQsqaUBKTNV-1">
          <mxGeometry x="326.5" y="170" width="130" height="36.5" as="geometry" />
        </mxCell>
        <mxCell id="U6kq9vKwo7JHEXa5F4a4-23" value="" style="rounded=1;whiteSpace=wrap;html=1;" vertex="1" parent="WIyWlLk6GJQsqaUBKTNV-1">
          <mxGeometry x="691.5" y="450" width="540" height="250" as="geometry" />
        </mxCell>
        <mxCell id="U6kq9vKwo7JHEXa5F4a4-24" value="" style="rounded=1;whiteSpace=wrap;html=1;" vertex="1" parent="WIyWlLk6GJQsqaUBKTNV-1">
          <mxGeometry x="871.5" y="475" width="159.5" height="200" as="geometry" />
        </mxCell>
        <mxCell id="U6kq9vKwo7JHEXa5F4a4-93" style="edgeStyle=orthogonalEdgeStyle;rounded=0;orthogonalLoop=1;jettySize=auto;html=1;entryX=0;entryY=0.25;entryDx=0;entryDy=0;" edge="1" parent="WIyWlLk6GJQsqaUBKTNV-1" source="U6kq9vKwo7JHEXa5F4a4-25" target="U6kq9vKwo7JHEXa5F4a4-28">
          <mxGeometry relative="1" as="geometry" />
        </mxCell>
        <mxCell id="U6kq9vKwo7JHEXa5F4a4-25" value="&lt;b&gt;MQTT Topic&lt;/b&gt;&lt;br&gt;vanetza/in/cpm" style="rounded=1;whiteSpace=wrap;html=1;arcSize=20;" vertex="1" parent="WIyWlLk6GJQsqaUBKTNV-1">
          <mxGeometry x="888" y="515" width="130" height="36.5" as="geometry" />
        </mxCell>
        <mxCell id="U6kq9vKwo7JHEXa5F4a4-26" value="&lt;b style=&quot;border-color: var(--border-color);&quot;&gt;Local MQTT Broker&lt;/b&gt;" style="text;html=1;strokeColor=none;fillColor=none;align=center;verticalAlign=middle;whiteSpace=wrap;rounded=0;" vertex="1" parent="WIyWlLk6GJQsqaUBKTNV-1">
          <mxGeometry x="865.5" y="475" width="140" height="30" as="geometry" />
        </mxCell>
        <mxCell id="U6kq9vKwo7JHEXa5F4a4-27" value="" style="group" vertex="1" connectable="0" parent="WIyWlLk6GJQsqaUBKTNV-1">
          <mxGeometry x="1071.5" y="495" width="120" height="150.88" as="geometry" />
        </mxCell>
        <mxCell id="U6kq9vKwo7JHEXa5F4a4-28" value="" style="rounded=1;whiteSpace=wrap;html=1;" vertex="1" parent="U6kq9vKwo7JHEXa5F4a4-27">
          <mxGeometry width="120" height="150.88000000000002" as="geometry" />
        </mxCell>
        <mxCell id="U6kq9vKwo7JHEXa5F4a4-29" value="NAP-Vanetza" style="rounded=1;whiteSpace=wrap;html=1;" vertex="1" parent="U6kq9vKwo7JHEXa5F4a4-27">
          <mxGeometry x="12.5" y="12.13977011494253" width="95" height="52.02758620689656" as="geometry" />
        </mxCell>
        <mxCell id="U6kq9vKwo7JHEXa5F4a4-30" value="Vanetza" style="rounded=1;whiteSpace=wrap;html=1;" vertex="1" parent="U6kq9vKwo7JHEXa5F4a4-27">
          <mxGeometry x="12.5" y="81.50988505747128" width="95" height="52.02758620689656" as="geometry" />
        </mxCell>
        <mxCell id="U6kq9vKwo7JHEXa5F4a4-32" value="&lt;b style=&quot;font-size: 23px;&quot;&gt;&lt;font style=&quot;font-size: 23px;&quot;&gt;RSU&lt;/font&gt;&lt;/b&gt;" style="text;html=1;strokeColor=none;fillColor=none;align=center;verticalAlign=middle;whiteSpace=wrap;rounded=0;fontSize=23;" vertex="1" parent="WIyWlLk6GJQsqaUBKTNV-1">
          <mxGeometry x="761.5" y="461" width="90" height="30" as="geometry" />
        </mxCell>
        <mxCell id="U6kq9vKwo7JHEXa5F4a4-99" style="edgeStyle=orthogonalEdgeStyle;rounded=0;orthogonalLoop=1;jettySize=auto;html=1;entryX=0;entryY=0.5;entryDx=0;entryDy=0;" edge="1" parent="WIyWlLk6GJQsqaUBKTNV-1" source="U6kq9vKwo7JHEXa5F4a4-34" target="U6kq9vKwo7JHEXa5F4a4-25">
          <mxGeometry relative="1" as="geometry">
            <Array as="points">
              <mxPoint x="851.5" y="533" />
              <mxPoint x="851.5" y="533" />
            </Array>
          </mxGeometry>
        </mxCell>
        <mxCell id="U6kq9vKwo7JHEXa5F4a4-34" value="&lt;b&gt;script_bs.py&lt;/b&gt;&lt;br&gt;&lt;br&gt;Subscrive cpm&lt;br&gt;&lt;br&gt;Publish cpm" style="rounded=1;whiteSpace=wrap;html=1;" vertex="1" parent="WIyWlLk6GJQsqaUBKTNV-1">
          <mxGeometry x="721.5" y="513.25" width="120" height="123.5" as="geometry" />
        </mxCell>
        <mxCell id="U6kq9vKwo7JHEXa5F4a4-40" value="" style="shape=image;html=1;verticalAlign=top;verticalLabelPosition=bottom;labelBackgroundColor=#ffffff;imageAspect=0;aspect=fixed;image=https://cdn4.iconfinder.com/data/icons/internet-networking-and-communication-glyph-24/24/Communication_tower_signal_tower_wifi_antenna_wifi_tower_wireless_antenna-128.png" vertex="1" parent="WIyWlLk6GJQsqaUBKTNV-1">
          <mxGeometry x="723.5" y="457" width="38" height="38" as="geometry" />
        </mxCell>
        <mxCell id="U6kq9vKwo7JHEXa5F4a4-108" style="edgeStyle=orthogonalEdgeStyle;rounded=0;orthogonalLoop=1;jettySize=auto;html=1;entryX=0;entryY=0.75;entryDx=0;entryDy=0;" edge="1" parent="WIyWlLk6GJQsqaUBKTNV-1" source="U6kq9vKwo7JHEXa5F4a4-94" target="U6kq9vKwo7JHEXa5F4a4-5">
          <mxGeometry relative="1" as="geometry">
            <Array as="points">
              <mxPoint x="483" y="233" />
            </Array>
          </mxGeometry>
        </mxCell>
        <mxCell id="U6kq9vKwo7JHEXa5F4a4-94" value="&lt;b&gt;MQTT Topic&lt;/b&gt;&lt;br&gt;vanetza/in/cam" style="rounded=1;whiteSpace=wrap;html=1;arcSize=20;" vertex="1" parent="WIyWlLk6GJQsqaUBKTNV-1">
          <mxGeometry x="326.5" y="210" width="130" height="36.5" as="geometry" />
        </mxCell>
        <mxCell id="U6kq9vKwo7JHEXa5F4a4-109" style="edgeStyle=orthogonalEdgeStyle;rounded=0;orthogonalLoop=1;jettySize=auto;html=1;entryX=0.011;entryY=0.924;entryDx=0;entryDy=0;entryPerimeter=0;" edge="1" parent="WIyWlLk6GJQsqaUBKTNV-1" source="U6kq9vKwo7JHEXa5F4a4-95" target="U6kq9vKwo7JHEXa5F4a4-5">
          <mxGeometry relative="1" as="geometry" />
        </mxCell>
        <mxCell id="U6kq9vKwo7JHEXa5F4a4-95" value="&lt;b&gt;MQTT Topic&lt;/b&gt;&lt;br&gt;vanetza/in/denm" style="rounded=1;whiteSpace=wrap;html=1;arcSize=20;" vertex="1" parent="WIyWlLk6GJQsqaUBKTNV-1">
          <mxGeometry x="326.5" y="253.5" width="130" height="36.5" as="geometry" />
        </mxCell>
        <mxCell id="U6kq9vKwo7JHEXa5F4a4-113" style="edgeStyle=orthogonalEdgeStyle;rounded=0;orthogonalLoop=1;jettySize=auto;html=1;entryX=1;entryY=0.5;entryDx=0;entryDy=0;" edge="1" parent="WIyWlLk6GJQsqaUBKTNV-1" source="U6kq9vKwo7JHEXa5F4a4-97" target="U6kq9vKwo7JHEXa5F4a4-34">
          <mxGeometry relative="1" as="geometry" />
        </mxCell>
        <mxCell id="U6kq9vKwo7JHEXa5F4a4-97" value="&lt;b&gt;MQTT Topic&lt;/b&gt;&lt;br&gt;vanetza/out/cpm" style="rounded=1;whiteSpace=wrap;html=1;arcSize=20;" vertex="1" parent="WIyWlLk6GJQsqaUBKTNV-1">
          <mxGeometry x="888" y="556.75" width="130" height="36.5" as="geometry" />
        </mxCell>
        <mxCell id="U6kq9vKwo7JHEXa5F4a4-100" style="edgeStyle=orthogonalEdgeStyle;rounded=0;orthogonalLoop=1;jettySize=auto;html=1;entryX=1;entryY=0.5;entryDx=0;entryDy=0;" edge="1" parent="WIyWlLk6GJQsqaUBKTNV-1" source="U6kq9vKwo7JHEXa5F4a4-5" target="U6kq9vKwo7JHEXa5F4a4-1">
          <mxGeometry relative="1" as="geometry">
            <Array as="points">
              <mxPoint x="500" y="108" />
              <mxPoint x="500" y="108" />
            </Array>
          </mxGeometry>
        </mxCell>
        <mxCell id="U6kq9vKwo7JHEXa5F4a4-101" style="edgeStyle=orthogonalEdgeStyle;rounded=0;orthogonalLoop=1;jettySize=auto;html=1;entryX=1;entryY=0.5;entryDx=0;entryDy=0;" edge="1" parent="WIyWlLk6GJQsqaUBKTNV-1" source="U6kq9vKwo7JHEXa5F4a4-5" target="U6kq9vKwo7JHEXa5F4a4-16">
          <mxGeometry relative="1" as="geometry">
            <Array as="points">
              <mxPoint x="500" y="148" />
              <mxPoint x="500" y="148" />
            </Array>
          </mxGeometry>
        </mxCell>
        <mxCell id="U6kq9vKwo7JHEXa5F4a4-102" style="edgeStyle=orthogonalEdgeStyle;rounded=0;orthogonalLoop=1;jettySize=auto;html=1;" edge="1" parent="WIyWlLk6GJQsqaUBKTNV-1" source="U6kq9vKwo7JHEXa5F4a4-5" target="U6kq9vKwo7JHEXa5F4a4-18">
          <mxGeometry relative="1" as="geometry">
            <Array as="points">
              <mxPoint x="500" y="188" />
              <mxPoint x="500" y="188" />
            </Array>
          </mxGeometry>
        </mxCell>
        <mxCell id="U6kq9vKwo7JHEXa5F4a4-112" style="edgeStyle=orthogonalEdgeStyle;rounded=0;orthogonalLoop=1;jettySize=auto;html=1;" edge="1" parent="WIyWlLk6GJQsqaUBKTNV-1" source="U6kq9vKwo7JHEXa5F4a4-28" target="U6kq9vKwo7JHEXa5F4a4-97">
          <mxGeometry relative="1" as="geometry">
            <Array as="points">
              <mxPoint x="1051.5" y="575" />
              <mxPoint x="1051.5" y="575" />
            </Array>
          </mxGeometry>
        </mxCell>
        <mxCell id="U6kq9vKwo7JHEXa5F4a4-116" style="edgeStyle=orthogonalEdgeStyle;rounded=0;orthogonalLoop=1;jettySize=auto;html=1;" edge="1" parent="WIyWlLk6GJQsqaUBKTNV-1" source="U6kq9vKwo7JHEXa5F4a4-114">
          <mxGeometry relative="1" as="geometry">
            <mxPoint x="540" y="290.0000000000001" as="targetPoint" />
          </mxGeometry>
        </mxCell>
        <mxCell id="U6kq9vKwo7JHEXa5F4a4-114" value="&lt;b&gt;MQTT Topic&lt;/b&gt;&lt;br&gt;vanetza/in/cpm" style="rounded=1;whiteSpace=wrap;html=1;arcSize=20;" vertex="1" parent="WIyWlLk6GJQsqaUBKTNV-1">
          <mxGeometry x="326.5" y="300" width="130" height="36.5" as="geometry" />
        </mxCell>
        <mxCell id="U6kq9vKwo7JHEXa5F4a4-147" value="" style="rounded=1;whiteSpace=wrap;html=1;" vertex="1" parent="WIyWlLk6GJQsqaUBKTNV-1">
          <mxGeometry x="696.5" y="39.99999999999999" width="530" height="320" as="geometry" />
        </mxCell>
        <mxCell id="U6kq9vKwo7JHEXa5F4a4-148" value="" style="rounded=1;whiteSpace=wrap;html=1;" vertex="1" parent="WIyWlLk6GJQsqaUBKTNV-1">
          <mxGeometry x="860.5" y="50.87999999999999" width="175" height="299.12" as="geometry" />
        </mxCell>
        <mxCell id="U6kq9vKwo7JHEXa5F4a4-149" style="edgeStyle=orthogonalEdgeStyle;rounded=0;orthogonalLoop=1;jettySize=auto;html=1;entryX=0.975;entryY=0.047;entryDx=0;entryDy=0;entryPerimeter=0;" edge="1" parent="WIyWlLk6GJQsqaUBKTNV-1" source="U6kq9vKwo7JHEXa5F4a4-150" target="U6kq9vKwo7JHEXa5F4a4-161">
          <mxGeometry relative="1" as="geometry" />
        </mxCell>
        <mxCell id="U6kq9vKwo7JHEXa5F4a4-150" value="&lt;b&gt;MQTT Topic&lt;/b&gt;&lt;br&gt;vanetza/out/cpm" style="rounded=1;whiteSpace=wrap;html=1;arcSize=20;" vertex="1" parent="WIyWlLk6GJQsqaUBKTNV-1">
          <mxGeometry x="883" y="90" width="130" height="36.5" as="geometry" />
        </mxCell>
        <mxCell id="U6kq9vKwo7JHEXa5F4a4-151" value="&lt;b style=&quot;border-color: var(--border-color);&quot;&gt;Local MQTT Broker&lt;/b&gt;" style="text;html=1;strokeColor=none;fillColor=none;align=center;verticalAlign=middle;whiteSpace=wrap;rounded=0;" vertex="1" parent="WIyWlLk6GJQsqaUBKTNV-1">
          <mxGeometry x="860.5" y="50.99999999999999" width="140" height="30" as="geometry" />
        </mxCell>
        <mxCell id="U6kq9vKwo7JHEXa5F4a4-152" value="" style="group" vertex="1" connectable="0" parent="WIyWlLk6GJQsqaUBKTNV-1">
          <mxGeometry x="1066.5" y="59.99999999999999" width="120" height="230" as="geometry" />
        </mxCell>
        <mxCell id="U6kq9vKwo7JHEXa5F4a4-153" value="" style="rounded=1;whiteSpace=wrap;html=1;" vertex="1" parent="U6kq9vKwo7JHEXa5F4a4-152">
          <mxGeometry width="120" height="230.00000000000003" as="geometry" />
        </mxCell>
        <mxCell id="U6kq9vKwo7JHEXa5F4a4-154" value="NAP-Vanetza" style="rounded=1;whiteSpace=wrap;html=1;" vertex="1" parent="U6kq9vKwo7JHEXa5F4a4-152">
          <mxGeometry x="12.5" y="40" width="95" height="47.82" as="geometry" />
        </mxCell>
        <mxCell id="U6kq9vKwo7JHEXa5F4a4-155" value="Vanetza" style="rounded=1;whiteSpace=wrap;html=1;" vertex="1" parent="U6kq9vKwo7JHEXa5F4a4-152">
          <mxGeometry x="12.5" y="150" width="95" height="43.56" as="geometry" />
        </mxCell>
        <mxCell id="U6kq9vKwo7JHEXa5F4a4-156" value="" style="shape=mxgraph.signs.sports.sail_boat;html=1;pointerEvents=1;fillColor=#000000;strokeColor=none;verticalLabelPosition=bottom;verticalAlign=top;align=center;" vertex="1" parent="WIyWlLk6GJQsqaUBKTNV-1">
          <mxGeometry x="716.5" y="50.99999999999999" width="40" height="39" as="geometry" />
        </mxCell>
        <mxCell id="U6kq9vKwo7JHEXa5F4a4-157" value="&lt;b style=&quot;font-size: 23px;&quot;&gt;&lt;font style=&quot;font-size: 23px;&quot;&gt;OBU2&lt;/font&gt;&lt;/b&gt;" style="text;html=1;strokeColor=none;fillColor=none;align=center;verticalAlign=middle;whiteSpace=wrap;rounded=0;fontSize=23;" vertex="1" parent="WIyWlLk6GJQsqaUBKTNV-1">
          <mxGeometry x="756.5" y="55.49999999999999" width="90" height="30" as="geometry" />
        </mxCell>
        <mxCell id="U6kq9vKwo7JHEXa5F4a4-158" style="edgeStyle=orthogonalEdgeStyle;rounded=0;orthogonalLoop=1;jettySize=auto;html=1;entryX=0;entryY=0.5;entryDx=0;entryDy=0;exitX=1.004;exitY=0.676;exitDx=0;exitDy=0;exitPerimeter=0;" edge="1" parent="WIyWlLk6GJQsqaUBKTNV-1" source="U6kq9vKwo7JHEXa5F4a4-161" target="U6kq9vKwo7JHEXa5F4a4-167">
          <mxGeometry relative="1" as="geometry">
            <Array as="points" />
          </mxGeometry>
        </mxCell>
        <mxCell id="U6kq9vKwo7JHEXa5F4a4-159" style="edgeStyle=orthogonalEdgeStyle;rounded=0;orthogonalLoop=1;jettySize=auto;html=1;entryX=0;entryY=0.5;entryDx=0;entryDy=0;" edge="1" parent="WIyWlLk6GJQsqaUBKTNV-1" target="U6kq9vKwo7JHEXa5F4a4-169">
          <mxGeometry relative="1" as="geometry">
            <mxPoint x="836.5" y="272" as="sourcePoint" />
          </mxGeometry>
        </mxCell>
        <mxCell id="U6kq9vKwo7JHEXa5F4a4-160" style="edgeStyle=orthogonalEdgeStyle;rounded=0;orthogonalLoop=1;jettySize=auto;html=1;entryX=0;entryY=0.5;entryDx=0;entryDy=0;" edge="1" parent="WIyWlLk6GJQsqaUBKTNV-1" source="U6kq9vKwo7JHEXa5F4a4-161" target="U6kq9vKwo7JHEXa5F4a4-174">
          <mxGeometry relative="1" as="geometry">
            <Array as="points">
              <mxPoint x="776.5" y="318" />
            </Array>
          </mxGeometry>
        </mxCell>
        <mxCell id="U6kq9vKwo7JHEXa5F4a4-161" value="&lt;b&gt;script_boat.py&lt;br&gt;&lt;/b&gt;&lt;br&gt;Subscrive denm&lt;br&gt;Subscrive cpm&lt;br&gt;Subscrive cam&lt;br&gt;&lt;br&gt;Publish denm&lt;br&gt;Publish cpm&lt;br&gt;Pubish cam" style="rounded=1;whiteSpace=wrap;html=1;" vertex="1" parent="WIyWlLk6GJQsqaUBKTNV-1">
          <mxGeometry x="716.5" y="100" width="120" height="190" as="geometry" />
        </mxCell>
        <mxCell id="U6kq9vKwo7JHEXa5F4a4-162" style="edgeStyle=orthogonalEdgeStyle;rounded=0;orthogonalLoop=1;jettySize=auto;html=1;entryX=1;entryY=0.25;entryDx=0;entryDy=0;" edge="1" parent="WIyWlLk6GJQsqaUBKTNV-1" source="U6kq9vKwo7JHEXa5F4a4-163" target="U6kq9vKwo7JHEXa5F4a4-161">
          <mxGeometry relative="1" as="geometry" />
        </mxCell>
        <mxCell id="U6kq9vKwo7JHEXa5F4a4-163" value="&lt;b&gt;MQTT Topic&lt;/b&gt;&lt;br&gt;vanetza/out/denm" style="rounded=1;whiteSpace=wrap;html=1;arcSize=20;" vertex="1" parent="WIyWlLk6GJQsqaUBKTNV-1">
          <mxGeometry x="883" y="130" width="130" height="36.5" as="geometry" />
        </mxCell>
        <mxCell id="U6kq9vKwo7JHEXa5F4a4-164" style="edgeStyle=orthogonalEdgeStyle;rounded=0;orthogonalLoop=1;jettySize=auto;html=1;entryX=1.004;entryY=0.465;entryDx=0;entryDy=0;entryPerimeter=0;" edge="1" parent="WIyWlLk6GJQsqaUBKTNV-1" source="U6kq9vKwo7JHEXa5F4a4-165" target="U6kq9vKwo7JHEXa5F4a4-161">
          <mxGeometry relative="1" as="geometry" />
        </mxCell>
        <mxCell id="U6kq9vKwo7JHEXa5F4a4-165" value="&lt;b&gt;MQTT Topic&lt;/b&gt;&lt;br&gt;vanetza/out/cam" style="rounded=1;whiteSpace=wrap;html=1;arcSize=20;" vertex="1" parent="WIyWlLk6GJQsqaUBKTNV-1">
          <mxGeometry x="883" y="170" width="130" height="36.5" as="geometry" />
        </mxCell>
        <mxCell id="U6kq9vKwo7JHEXa5F4a4-166" style="edgeStyle=orthogonalEdgeStyle;rounded=0;orthogonalLoop=1;jettySize=auto;html=1;entryX=0;entryY=0.75;entryDx=0;entryDy=0;" edge="1" parent="WIyWlLk6GJQsqaUBKTNV-1" source="U6kq9vKwo7JHEXa5F4a4-167" target="U6kq9vKwo7JHEXa5F4a4-153">
          <mxGeometry relative="1" as="geometry">
            <Array as="points">
              <mxPoint x="1039.5" y="233" />
            </Array>
          </mxGeometry>
        </mxCell>
        <mxCell id="U6kq9vKwo7JHEXa5F4a4-167" value="&lt;b&gt;MQTT Topic&lt;/b&gt;&lt;br&gt;vanetza/in/cam" style="rounded=1;whiteSpace=wrap;html=1;arcSize=20;" vertex="1" parent="WIyWlLk6GJQsqaUBKTNV-1">
          <mxGeometry x="883" y="210" width="130" height="36.5" as="geometry" />
        </mxCell>
        <mxCell id="U6kq9vKwo7JHEXa5F4a4-168" style="edgeStyle=orthogonalEdgeStyle;rounded=0;orthogonalLoop=1;jettySize=auto;html=1;entryX=0.011;entryY=0.924;entryDx=0;entryDy=0;entryPerimeter=0;" edge="1" parent="WIyWlLk6GJQsqaUBKTNV-1" source="U6kq9vKwo7JHEXa5F4a4-169" target="U6kq9vKwo7JHEXa5F4a4-153">
          <mxGeometry relative="1" as="geometry" />
        </mxCell>
        <mxCell id="U6kq9vKwo7JHEXa5F4a4-169" value="&lt;b&gt;MQTT Topic&lt;/b&gt;&lt;br&gt;vanetza/in/denm" style="rounded=1;whiteSpace=wrap;html=1;arcSize=20;" vertex="1" parent="WIyWlLk6GJQsqaUBKTNV-1">
          <mxGeometry x="883" y="253.5" width="130" height="36.5" as="geometry" />
        </mxCell>
        <mxCell id="U6kq9vKwo7JHEXa5F4a4-170" style="edgeStyle=orthogonalEdgeStyle;rounded=0;orthogonalLoop=1;jettySize=auto;html=1;entryX=1;entryY=0.5;entryDx=0;entryDy=0;" edge="1" parent="WIyWlLk6GJQsqaUBKTNV-1" source="U6kq9vKwo7JHEXa5F4a4-153" target="U6kq9vKwo7JHEXa5F4a4-150">
          <mxGeometry relative="1" as="geometry">
            <Array as="points">
              <mxPoint x="1056.5" y="108" />
              <mxPoint x="1056.5" y="108" />
            </Array>
          </mxGeometry>
        </mxCell>
        <mxCell id="U6kq9vKwo7JHEXa5F4a4-171" style="edgeStyle=orthogonalEdgeStyle;rounded=0;orthogonalLoop=1;jettySize=auto;html=1;entryX=1;entryY=0.5;entryDx=0;entryDy=0;" edge="1" parent="WIyWlLk6GJQsqaUBKTNV-1" source="U6kq9vKwo7JHEXa5F4a4-153" target="U6kq9vKwo7JHEXa5F4a4-163">
          <mxGeometry relative="1" as="geometry">
            <Array as="points">
              <mxPoint x="1056.5" y="148" />
              <mxPoint x="1056.5" y="148" />
            </Array>
          </mxGeometry>
        </mxCell>
        <mxCell id="U6kq9vKwo7JHEXa5F4a4-172" style="edgeStyle=orthogonalEdgeStyle;rounded=0;orthogonalLoop=1;jettySize=auto;html=1;" edge="1" parent="WIyWlLk6GJQsqaUBKTNV-1" source="U6kq9vKwo7JHEXa5F4a4-153" target="U6kq9vKwo7JHEXa5F4a4-165">
          <mxGeometry relative="1" as="geometry">
            <Array as="points">
              <mxPoint x="1056.5" y="188" />
              <mxPoint x="1056.5" y="188" />
            </Array>
          </mxGeometry>
        </mxCell>
        <mxCell id="U6kq9vKwo7JHEXa5F4a4-173" style="edgeStyle=orthogonalEdgeStyle;rounded=0;orthogonalLoop=1;jettySize=auto;html=1;" edge="1" parent="WIyWlLk6GJQsqaUBKTNV-1" source="U6kq9vKwo7JHEXa5F4a4-174">
          <mxGeometry relative="1" as="geometry">
            <mxPoint x="1096.5" y="290.0000000000001" as="targetPoint" />
          </mxGeometry>
        </mxCell>
        <mxCell id="U6kq9vKwo7JHEXa5F4a4-174" value="&lt;b&gt;MQTT Topic&lt;/b&gt;&lt;br&gt;vanetza/in/cpm" style="rounded=1;whiteSpace=wrap;html=1;arcSize=20;" vertex="1" parent="WIyWlLk6GJQsqaUBKTNV-1">
          <mxGeometry x="883" y="300" width="130" height="36.5" as="geometry" />
        </mxCell>
        <mxCell id="U6kq9vKwo7JHEXa5F4a4-175" value="" style="rounded=1;whiteSpace=wrap;html=1;" vertex="1" parent="WIyWlLk6GJQsqaUBKTNV-1">
          <mxGeometry x="1250" y="34.99999999999999" width="530" height="320" as="geometry" />
        </mxCell>
        <mxCell id="U6kq9vKwo7JHEXa5F4a4-176" value="" style="rounded=1;whiteSpace=wrap;html=1;" vertex="1" parent="WIyWlLk6GJQsqaUBKTNV-1">
          <mxGeometry x="1414" y="45.87999999999999" width="175" height="299.12" as="geometry" />
        </mxCell>
        <mxCell id="U6kq9vKwo7JHEXa5F4a4-177" style="edgeStyle=orthogonalEdgeStyle;rounded=0;orthogonalLoop=1;jettySize=auto;html=1;entryX=0.975;entryY=0.047;entryDx=0;entryDy=0;entryPerimeter=0;" edge="1" parent="WIyWlLk6GJQsqaUBKTNV-1" source="U6kq9vKwo7JHEXa5F4a4-178" target="U6kq9vKwo7JHEXa5F4a4-189">
          <mxGeometry relative="1" as="geometry" />
        </mxCell>
        <mxCell id="U6kq9vKwo7JHEXa5F4a4-178" value="&lt;b&gt;MQTT Topic&lt;/b&gt;&lt;br&gt;vanetza/out/cpm" style="rounded=1;whiteSpace=wrap;html=1;arcSize=20;" vertex="1" parent="WIyWlLk6GJQsqaUBKTNV-1">
          <mxGeometry x="1436.5" y="85" width="130" height="36.5" as="geometry" />
        </mxCell>
        <mxCell id="U6kq9vKwo7JHEXa5F4a4-179" value="&lt;b style=&quot;border-color: var(--border-color);&quot;&gt;Local MQTT Broker&lt;/b&gt;" style="text;html=1;strokeColor=none;fillColor=none;align=center;verticalAlign=middle;whiteSpace=wrap;rounded=0;" vertex="1" parent="WIyWlLk6GJQsqaUBKTNV-1">
          <mxGeometry x="1414" y="45.99999999999999" width="140" height="30" as="geometry" />
        </mxCell>
        <mxCell id="U6kq9vKwo7JHEXa5F4a4-180" value="" style="group" vertex="1" connectable="0" parent="WIyWlLk6GJQsqaUBKTNV-1">
          <mxGeometry x="1620" y="54.99999999999999" width="120" height="230" as="geometry" />
        </mxCell>
        <mxCell id="U6kq9vKwo7JHEXa5F4a4-181" value="" style="rounded=1;whiteSpace=wrap;html=1;" vertex="1" parent="U6kq9vKwo7JHEXa5F4a4-180">
          <mxGeometry width="120" height="230.00000000000003" as="geometry" />
        </mxCell>
        <mxCell id="U6kq9vKwo7JHEXa5F4a4-182" value="NAP-Vanetza" style="rounded=1;whiteSpace=wrap;html=1;" vertex="1" parent="U6kq9vKwo7JHEXa5F4a4-180">
          <mxGeometry x="12.5" y="40" width="95" height="47.82" as="geometry" />
        </mxCell>
        <mxCell id="U6kq9vKwo7JHEXa5F4a4-183" value="Vanetza" style="rounded=1;whiteSpace=wrap;html=1;" vertex="1" parent="U6kq9vKwo7JHEXa5F4a4-180">
          <mxGeometry x="12.5" y="150" width="95" height="43.56" as="geometry" />
        </mxCell>
        <mxCell id="U6kq9vKwo7JHEXa5F4a4-184" value="" style="shape=mxgraph.signs.sports.sail_boat;html=1;pointerEvents=1;fillColor=#000000;strokeColor=none;verticalLabelPosition=bottom;verticalAlign=top;align=center;" vertex="1" parent="WIyWlLk6GJQsqaUBKTNV-1">
          <mxGeometry x="1270" y="45.99999999999999" width="40" height="39" as="geometry" />
        </mxCell>
        <mxCell id="U6kq9vKwo7JHEXa5F4a4-185" value="&lt;b style=&quot;font-size: 23px;&quot;&gt;&lt;font style=&quot;font-size: 23px;&quot;&gt;OBU3&lt;/font&gt;&lt;/b&gt;" style="text;html=1;strokeColor=none;fillColor=none;align=center;verticalAlign=middle;whiteSpace=wrap;rounded=0;fontSize=23;" vertex="1" parent="WIyWlLk6GJQsqaUBKTNV-1">
          <mxGeometry x="1310" y="50.49999999999999" width="90" height="30" as="geometry" />
        </mxCell>
        <mxCell id="U6kq9vKwo7JHEXa5F4a4-186" style="edgeStyle=orthogonalEdgeStyle;rounded=0;orthogonalLoop=1;jettySize=auto;html=1;entryX=0;entryY=0.5;entryDx=0;entryDy=0;exitX=1.004;exitY=0.676;exitDx=0;exitDy=0;exitPerimeter=0;" edge="1" parent="WIyWlLk6GJQsqaUBKTNV-1" source="U6kq9vKwo7JHEXa5F4a4-189" target="U6kq9vKwo7JHEXa5F4a4-195">
          <mxGeometry relative="1" as="geometry">
            <Array as="points" />
          </mxGeometry>
        </mxCell>
        <mxCell id="U6kq9vKwo7JHEXa5F4a4-187" style="edgeStyle=orthogonalEdgeStyle;rounded=0;orthogonalLoop=1;jettySize=auto;html=1;entryX=0;entryY=0.5;entryDx=0;entryDy=0;" edge="1" parent="WIyWlLk6GJQsqaUBKTNV-1" target="U6kq9vKwo7JHEXa5F4a4-197">
          <mxGeometry relative="1" as="geometry">
            <mxPoint x="1390" y="267" as="sourcePoint" />
          </mxGeometry>
        </mxCell>
        <mxCell id="U6kq9vKwo7JHEXa5F4a4-188" style="edgeStyle=orthogonalEdgeStyle;rounded=0;orthogonalLoop=1;jettySize=auto;html=1;entryX=0;entryY=0.5;entryDx=0;entryDy=0;" edge="1" parent="WIyWlLk6GJQsqaUBKTNV-1" source="U6kq9vKwo7JHEXa5F4a4-189" target="U6kq9vKwo7JHEXa5F4a4-202">
          <mxGeometry relative="1" as="geometry">
            <Array as="points">
              <mxPoint x="1330" y="313" />
            </Array>
          </mxGeometry>
        </mxCell>
        <mxCell id="U6kq9vKwo7JHEXa5F4a4-189" value="&lt;b&gt;script_boat.py&lt;br&gt;&lt;/b&gt;&lt;br&gt;Subscrive denm&lt;br&gt;Subscrive cpm&lt;br&gt;Subscrive cam&lt;br&gt;&lt;br&gt;Publish denm&lt;br&gt;Publish cpm&lt;br&gt;Pubish cam" style="rounded=1;whiteSpace=wrap;html=1;" vertex="1" parent="WIyWlLk6GJQsqaUBKTNV-1">
          <mxGeometry x="1270" y="95" width="120" height="190" as="geometry" />
        </mxCell>
        <mxCell id="U6kq9vKwo7JHEXa5F4a4-190" style="edgeStyle=orthogonalEdgeStyle;rounded=0;orthogonalLoop=1;jettySize=auto;html=1;entryX=1;entryY=0.25;entryDx=0;entryDy=0;" edge="1" parent="WIyWlLk6GJQsqaUBKTNV-1" source="U6kq9vKwo7JHEXa5F4a4-191" target="U6kq9vKwo7JHEXa5F4a4-189">
          <mxGeometry relative="1" as="geometry" />
        </mxCell>
        <mxCell id="U6kq9vKwo7JHEXa5F4a4-191" value="&lt;b&gt;MQTT Topic&lt;/b&gt;&lt;br&gt;vanetza/out/denm" style="rounded=1;whiteSpace=wrap;html=1;arcSize=20;" vertex="1" parent="WIyWlLk6GJQsqaUBKTNV-1">
          <mxGeometry x="1436.5" y="125" width="130" height="36.5" as="geometry" />
        </mxCell>
        <mxCell id="U6kq9vKwo7JHEXa5F4a4-192" style="edgeStyle=orthogonalEdgeStyle;rounded=0;orthogonalLoop=1;jettySize=auto;html=1;entryX=1.004;entryY=0.465;entryDx=0;entryDy=0;entryPerimeter=0;" edge="1" parent="WIyWlLk6GJQsqaUBKTNV-1" source="U6kq9vKwo7JHEXa5F4a4-193" target="U6kq9vKwo7JHEXa5F4a4-189">
          <mxGeometry relative="1" as="geometry" />
        </mxCell>
        <mxCell id="U6kq9vKwo7JHEXa5F4a4-193" value="&lt;b&gt;MQTT Topic&lt;/b&gt;&lt;br&gt;vanetza/out/cam" style="rounded=1;whiteSpace=wrap;html=1;arcSize=20;" vertex="1" parent="WIyWlLk6GJQsqaUBKTNV-1">
          <mxGeometry x="1436.5" y="165" width="130" height="36.5" as="geometry" />
        </mxCell>
        <mxCell id="U6kq9vKwo7JHEXa5F4a4-194" style="edgeStyle=orthogonalEdgeStyle;rounded=0;orthogonalLoop=1;jettySize=auto;html=1;entryX=0;entryY=0.75;entryDx=0;entryDy=0;" edge="1" parent="WIyWlLk6GJQsqaUBKTNV-1" source="U6kq9vKwo7JHEXa5F4a4-195" target="U6kq9vKwo7JHEXa5F4a4-181">
          <mxGeometry relative="1" as="geometry">
            <Array as="points">
              <mxPoint x="1593" y="228" />
            </Array>
          </mxGeometry>
        </mxCell>
        <mxCell id="U6kq9vKwo7JHEXa5F4a4-195" value="&lt;b&gt;MQTT Topic&lt;/b&gt;&lt;br&gt;vanetza/in/cam" style="rounded=1;whiteSpace=wrap;html=1;arcSize=20;" vertex="1" parent="WIyWlLk6GJQsqaUBKTNV-1">
          <mxGeometry x="1436.5" y="205" width="130" height="36.5" as="geometry" />
        </mxCell>
        <mxCell id="U6kq9vKwo7JHEXa5F4a4-196" style="edgeStyle=orthogonalEdgeStyle;rounded=0;orthogonalLoop=1;jettySize=auto;html=1;entryX=0.011;entryY=0.924;entryDx=0;entryDy=0;entryPerimeter=0;" edge="1" parent="WIyWlLk6GJQsqaUBKTNV-1" source="U6kq9vKwo7JHEXa5F4a4-197" target="U6kq9vKwo7JHEXa5F4a4-181">
          <mxGeometry relative="1" as="geometry" />
        </mxCell>
        <mxCell id="U6kq9vKwo7JHEXa5F4a4-197" value="&lt;b&gt;MQTT Topic&lt;/b&gt;&lt;br&gt;vanetza/in/denm" style="rounded=1;whiteSpace=wrap;html=1;arcSize=20;" vertex="1" parent="WIyWlLk6GJQsqaUBKTNV-1">
          <mxGeometry x="1436.5" y="248.5" width="130" height="36.5" as="geometry" />
        </mxCell>
        <mxCell id="U6kq9vKwo7JHEXa5F4a4-198" style="edgeStyle=orthogonalEdgeStyle;rounded=0;orthogonalLoop=1;jettySize=auto;html=1;entryX=1;entryY=0.5;entryDx=0;entryDy=0;" edge="1" parent="WIyWlLk6GJQsqaUBKTNV-1" source="U6kq9vKwo7JHEXa5F4a4-181" target="U6kq9vKwo7JHEXa5F4a4-178">
          <mxGeometry relative="1" as="geometry">
            <Array as="points">
              <mxPoint x="1610" y="103" />
              <mxPoint x="1610" y="103" />
            </Array>
          </mxGeometry>
        </mxCell>
        <mxCell id="U6kq9vKwo7JHEXa5F4a4-199" style="edgeStyle=orthogonalEdgeStyle;rounded=0;orthogonalLoop=1;jettySize=auto;html=1;entryX=1;entryY=0.5;entryDx=0;entryDy=0;" edge="1" parent="WIyWlLk6GJQsqaUBKTNV-1" source="U6kq9vKwo7JHEXa5F4a4-181" target="U6kq9vKwo7JHEXa5F4a4-191">
          <mxGeometry relative="1" as="geometry">
            <Array as="points">
              <mxPoint x="1610" y="143" />
              <mxPoint x="1610" y="143" />
            </Array>
          </mxGeometry>
        </mxCell>
        <mxCell id="U6kq9vKwo7JHEXa5F4a4-200" style="edgeStyle=orthogonalEdgeStyle;rounded=0;orthogonalLoop=1;jettySize=auto;html=1;" edge="1" parent="WIyWlLk6GJQsqaUBKTNV-1" source="U6kq9vKwo7JHEXa5F4a4-181" target="U6kq9vKwo7JHEXa5F4a4-193">
          <mxGeometry relative="1" as="geometry">
            <Array as="points">
              <mxPoint x="1610" y="183" />
              <mxPoint x="1610" y="183" />
            </Array>
          </mxGeometry>
        </mxCell>
        <mxCell id="U6kq9vKwo7JHEXa5F4a4-201" style="edgeStyle=orthogonalEdgeStyle;rounded=0;orthogonalLoop=1;jettySize=auto;html=1;" edge="1" parent="WIyWlLk6GJQsqaUBKTNV-1" source="U6kq9vKwo7JHEXa5F4a4-202">
          <mxGeometry relative="1" as="geometry">
            <mxPoint x="1650" y="285.0000000000001" as="targetPoint" />
          </mxGeometry>
        </mxCell>
        <mxCell id="U6kq9vKwo7JHEXa5F4a4-202" value="&lt;b&gt;MQTT Topic&lt;/b&gt;&lt;br&gt;vanetza/in/cpm" style="rounded=1;whiteSpace=wrap;html=1;arcSize=20;" vertex="1" parent="WIyWlLk6GJQsqaUBKTNV-1">
          <mxGeometry x="1436.5" y="295" width="130" height="36.5" as="geometry" />
        </mxCell>
        <mxCell id="U6kq9vKwo7JHEXa5F4a4-203" value="" style="shape=flexArrow;endArrow=classic;startArrow=classic;html=1;rounded=0;exitX=0.222;exitY=-0.002;exitDx=0;exitDy=0;exitPerimeter=0;" edge="1" parent="WIyWlLk6GJQsqaUBKTNV-1" source="U6kq9vKwo7JHEXa5F4a4-28">
          <mxGeometry width="100" height="100" relative="1" as="geometry">
            <mxPoint x="590" y="480" as="sourcePoint" />
            <mxPoint x="590" y="290" as="targetPoint" />
            <Array as="points">
              <mxPoint x="1098" y="430" />
              <mxPoint x="590" y="430" />
            </Array>
          </mxGeometry>
        </mxCell>
        <mxCell id="U6kq9vKwo7JHEXa5F4a4-204" value="" style="shape=flexArrow;endArrow=classic;startArrow=classic;html=1;rounded=0;exitX=0.5;exitY=0;exitDx=0;exitDy=0;" edge="1" parent="WIyWlLk6GJQsqaUBKTNV-1" source="U6kq9vKwo7JHEXa5F4a4-28">
          <mxGeometry width="100" height="100" relative="1" as="geometry">
            <mxPoint x="1132" y="490" as="sourcePoint" />
            <mxPoint x="1132" y="290" as="targetPoint" />
          </mxGeometry>
        </mxCell>
        <mxCell id="U6kq9vKwo7JHEXa5F4a4-205" value="" style="shape=flexArrow;endArrow=classic;startArrow=classic;html=1;rounded=0;entryX=0.583;entryY=0.978;entryDx=0;entryDy=0;entryPerimeter=0;exitX=0.82;exitY=-0.007;exitDx=0;exitDy=0;exitPerimeter=0;" edge="1" parent="WIyWlLk6GJQsqaUBKTNV-1" source="U6kq9vKwo7JHEXa5F4a4-28" target="U6kq9vKwo7JHEXa5F4a4-181">
          <mxGeometry width="100" height="100" relative="1" as="geometry">
            <mxPoint x="1610" y="390" as="sourcePoint" />
            <mxPoint x="1710" y="290" as="targetPoint" />
            <Array as="points">
              <mxPoint x="1170" y="460" />
              <mxPoint x="1170" y="450" />
              <mxPoint x="1170" y="430" />
              <mxPoint x="1690" y="430" />
            </Array>
          </mxGeometry>
        </mxCell>
        <mxCell id="U6kq9vKwo7JHEXa5F4a4-207" value="" style="shape=flexArrow;endArrow=classic;html=1;rounded=0;" edge="1" parent="WIyWlLk6GJQsqaUBKTNV-1">
          <mxGeometry width="50" height="50" relative="1" as="geometry">
            <mxPoint x="590" y="20" as="sourcePoint" />
            <mxPoint x="590" y="60" as="targetPoint" />
          </mxGeometry>
        </mxCell>
        <mxCell id="U6kq9vKwo7JHEXa5F4a4-208" value="" style="shape=flexArrow;endArrow=classic;html=1;rounded=0;" edge="1" parent="WIyWlLk6GJQsqaUBKTNV-1">
          <mxGeometry width="50" height="50" relative="1" as="geometry">
            <mxPoint x="1126" y="20" as="sourcePoint" />
            <mxPoint x="1126" y="60" as="targetPoint" />
          </mxGeometry>
        </mxCell>
        <mxCell id="U6kq9vKwo7JHEXa5F4a4-209" value="" style="shape=flexArrow;endArrow=classic;html=1;rounded=0;" edge="1" parent="WIyWlLk6GJQsqaUBKTNV-1">
          <mxGeometry width="50" height="50" relative="1" as="geometry">
            <mxPoint x="1679.5" y="15" as="sourcePoint" />
            <mxPoint x="1679.5" y="55" as="targetPoint" />
          </mxGeometry>
        </mxCell>
        <mxCell id="U6kq9vKwo7JHEXa5F4a4-210" value="" style="rounded=0;whiteSpace=wrap;html=1;" vertex="1" parent="WIyWlLk6GJQsqaUBKTNV-1">
          <mxGeometry x="590" y="20" width="1100" height="10" as="geometry" />
        </mxCell>
      </root>
    </mxGraphModel>
  </diagram>
</mxfile>
